<?xml version="1.0" encoding="utf-8"?>
<!-- Generator: Adobe Illustrator 15.0.2, SVG Export Plug-In  -->
<!DOCTYPE svg PUBLIC "-//W3C//DTD SVG 1.1//EN" "http://www.w3.org/Graphics/SVG/1.1/DTD/svg11.dtd" [
	<!ENTITY ns_flows "http://ns.adobe.com/Flows/1.0/">
]>
<svg version="1.1"
	 xmlns="http://www.w3.org/2000/svg" xmlns:xlink="http://www.w3.org/1999/xlink" xmlns:a="http://ns.adobe.com/AdobeSVGViewerExtensions/3.0/"
	 x="0px" y="0px" width="1000px" height="1000px" viewBox="0 0.957 1000 1000"
	 overflow="visible" enable-background="new 0 0.957 1000 1000" xml:space="preserve">
<defs>
</defs>
<rect fill="#1DD2AF" width="1000" height="1000"/>
<path fill="#FFF200" d="M860.805,740.141c-58.093-58.092-109.431-66.9-154.727-74.672c-41.388-7.103-74.079-12.712-115.989-54.622
	c-41.908-41.908-47.517-74.598-54.617-115.985c-7.771-45.294-16.578-96.632-74.668-154.723
	c-58.091-58.09-109.429-66.898-154.724-74.669c-41.387-7.101-74.077-12.709-115.985-54.618
	c-41.908-41.908-47.517-74.598-54.616-115.984c-4.941-28.799-10.307-60.042-28.486-93.91H19.269
	c33.423,37.297,38.714,68.015,45.246,106.085c7.771,45.294,16.579,96.631,74.668,154.722
	c58.091,58.09,109.429,66.898,154.724,74.669c41.387,7.101,74.077,12.709,115.985,54.618
	c41.908,41.908,47.517,74.599,54.617,115.985c7.771,45.295,16.578,96.633,74.668,154.723c58.092,58.092,109.431,66.9,154.726,74.673
	c41.389,7.102,74.08,12.711,115.99,54.621c41.911,41.91,47.521,74.602,54.622,115.99c4.942,28.801,10.308,60.045,28.489,93.914
	h87.725c-33.425-37.299-38.719-68.018-45.251-106.09C927.705,849.572,918.896,798.232,860.805,740.141z"/>
<path fill="#FFF200" d="M552.114,820.667c-41.388-7.102-74.079-12.711-115.989-54.621c-41.908-41.908-47.517-74.598-54.617-115.986
	c-7.771-45.293-16.578-96.631-74.668-154.723c-58.091-58.09-109.429-66.898-154.724-74.668
	c-41.387-7.102-74.077-12.709-115.985-54.619C18.723,348.642,7.59,332.824,0,317.313v113.516
	c52.061,45.716,98.528,53.697,139.942,60.803c41.387,7.1,74.077,12.709,115.985,54.617s47.517,74.6,54.617,115.986
	c7.771,45.295,16.578,96.633,74.668,154.723c58.092,58.092,109.431,66.9,154.726,74.672c41.389,7.102,74.08,12.711,115.99,54.621
	c19.646,19.646,31.315,37.267,38.901,54.706h76.275c-9.323-32.444-26.23-67.584-64.265-105.618
	C648.748,837.247,597.41,828.438,552.114,820.667z"/>
<path fill="#FFF200" d="M287.092,915.079c-41.908-41.908-47.517-74.598-54.617-115.986c-7.771-45.293-16.578-96.631-74.668-154.723
	C99.716,586.28,48.378,577.472,3.083,569.702c-1.034-0.178-2.06-0.354-3.083-0.53v73.068c37.203,6.561,68.103,14.25,106.895,53.042
	c41.908,41.908,47.517,74.6,54.617,115.986c7.771,45.295,16.578,96.633,74.668,154.723c14.462,14.462,28.506,25.868,42.142,34.966
	h223.674c-35.8-20.423-68.702-26.073-98.914-31.257C361.693,962.599,329.002,956.989,287.092,915.079z"/>
<path fill="#FFF200" d="M8.773,793.403c-2.942-2.942-5.866-5.751-8.773-8.446v122.175c6.271,17.047,9.223,34.194,12.479,53.17
	c2.238,13.045,4.564,26.592,8.127,40.655h75.191c-6.186-16.935-9.121-33.98-12.355-52.831
	C75.671,902.833,66.863,851.495,8.773,793.403z"/>
<path fill="#FFF200" d="M739.122,455.646c-41.908-41.908-47.517-74.598-54.617-115.985c-7.771-45.294-16.578-96.632-74.668-154.723
	c-58.091-58.09-109.429-66.898-154.724-74.669c-41.387-7.101-74.077-12.709-115.985-54.618
	c-19.642-19.642-31.31-37.258-38.895-54.694h-76.276c9.323,32.44,26.229,67.576,64.259,105.606
	c58.091,58.09,109.429,66.898,154.724,74.669c41.387,7.101,74.077,12.709,115.985,54.618
	c41.908,41.908,47.517,74.599,54.617,115.985c7.771,45.295,16.578,96.633,74.668,154.723c58.092,58.092,109.431,66.9,154.726,74.673
	c41.389,7.102,74.08,12.711,115.99,54.621c21.638,21.638,33.588,40.817,41.074,60.007V575.513
	c-54.069-49.654-102.167-57.914-144.889-65.244C813.724,503.166,781.032,497.557,739.122,455.646z"/>
<path fill="#FFF200" d="M833.538,190.628c-7.771-45.294-16.578-96.632-74.668-154.723c-14.453-14.453-28.488-25.854-42.116-34.948
	h-223.67c35.79,20.412,68.684,26.061,98.889,31.242c41.387,7.101,74.077,12.709,115.985,54.618
	c41.908,41.908,47.517,74.599,54.617,115.985c7.771,45.295,16.578,96.633,74.668,154.723c58.092,58.092,109.431,66.9,154.726,74.673
	c2.713,0.466,5.388,0.925,8.031,1.389v-73.064c-39.45-6.808-71.344-13.408-111.845-53.909
	C846.247,264.705,840.639,232.016,833.538,190.628z"/>
<path fill="#FFF200" d="M982.571,41.595c-2.237-13.039-4.562-26.58-8.122-40.638H899.26c6.181,16.929,9.115,33.969,12.349,52.812
	c7.771,45.295,16.578,96.633,74.668,154.723c4.617,4.617,9.191,8.921,13.724,12.939V106.652
	C990.123,85.589,986.583,64.98,982.571,41.595z"/>
<path fill="#E67E22" d="M860.805,740.141c-58.093-58.092-109.431-66.9-154.727-74.672c-41.388-7.103-74.079-12.712-115.989-54.622
	c-41.908-41.908-47.517-74.598-54.617-115.985c-7.771-45.294-16.578-96.632-74.668-154.723
	c-58.091-58.09-109.429-66.898-154.724-74.669c-41.387-7.101-74.077-12.709-115.985-54.618
	c-41.908-41.908-47.517-74.598-54.616-115.984c-4.941-28.799-10.307-60.042-28.486-93.91H19.269
	c33.423,37.297,38.714,68.015,45.246,106.085c7.771,45.294,16.579,96.631,74.668,154.722
	c58.091,58.09,109.429,66.898,154.724,74.669c41.387,7.101,74.077,12.709,115.985,54.618
	c41.908,41.908,47.517,74.599,54.617,115.985c7.771,45.295,16.578,96.633,74.668,154.723c58.092,58.092,109.431,66.9,154.726,74.673
	c41.389,7.102,74.08,12.711,115.99,54.621c41.911,41.91,47.521,74.602,54.622,115.99c4.942,28.801,10.308,60.045,28.489,93.914
	h87.725c-33.425-37.299-38.719-68.018-45.251-106.09C927.705,849.572,918.896,798.232,860.805,740.141z"/>
<path fill="#E67E22" d="M287.092,915.079c-41.908-41.908-47.517-74.598-54.617-115.986c-7.771-45.293-16.578-96.631-74.668-154.723
	C99.716,586.28,48.378,577.472,3.083,569.702c-1.034-0.178-2.06-0.354-3.083-0.53v73.068c37.203,6.561,68.103,14.25,106.895,53.042
	c41.908,41.908,47.517,74.6,54.617,115.986c7.771,45.295,16.578,96.633,74.668,154.723c14.462,14.462,28.506,25.868,42.142,34.966
	h223.674c-35.8-20.423-68.702-26.073-98.914-31.257C361.693,962.599,329.002,956.989,287.092,915.079z"/>
<path fill="#E67E22" d="M833.538,190.628c-7.771-45.294-16.578-96.632-74.668-154.723c-14.453-14.453-28.488-25.854-42.116-34.948
	h-223.67c35.79,20.412,68.684,26.061,98.889,31.242c41.387,7.101,74.077,12.709,115.985,54.618
	c41.908,41.908,47.517,74.599,54.617,115.985c7.771,45.295,16.578,96.633,74.668,154.723c58.092,58.092,109.431,66.9,154.726,74.673
	c2.713,0.466,5.388,0.925,8.031,1.389v-73.064c-39.45-6.808-71.344-13.408-111.845-53.909
	C846.247,264.705,840.639,232.016,833.538,190.628z"/>
<path fill="#7B73B0" d="M8.773,793.403c-2.942-2.942-5.866-5.751-8.773-8.446v122.175c6.271,17.047,9.223,34.194,12.479,53.17
	c2.238,13.045,4.564,26.592,8.127,40.655h75.191c-6.186-16.935-9.121-33.98-12.355-52.831
	C75.671,902.833,66.863,851.495,8.773,793.403z"/>
<path fill="#7B73B0" d="M739.122,455.646c-41.908-41.908-47.517-74.598-54.617-115.985c-7.771-45.294-16.578-96.632-74.668-154.723
	c-58.091-58.09-109.429-66.898-154.724-74.669c-41.387-7.101-74.077-12.709-115.985-54.618
	c-19.642-19.642-31.31-37.258-38.895-54.694h-76.276c9.323,32.44,26.229,67.576,64.259,105.606
	c58.091,58.09,109.429,66.898,154.724,74.669c41.387,7.101,74.077,12.709,115.985,54.618
	c41.908,41.908,47.517,74.599,54.617,115.985c7.771,45.295,16.578,96.633,74.668,154.723c58.092,58.092,109.431,66.9,154.726,74.673
	c41.389,7.102,74.08,12.711,115.99,54.621c21.638,21.638,33.588,40.817,41.074,60.007V575.513
	c-54.069-49.654-102.167-57.914-144.889-65.244C813.724,503.166,781.032,497.557,739.122,455.646z"/>
<polygon fill="#7B73B0" points="1000.499,1000 500.499,1500 1000.499,1500 "/>
<path fill="#F6B4C7" d="M982.571,41.595c-2.237-13.039-4.562-26.58-8.122-40.638H899.26c6.181,16.929,9.115,33.969,12.349,52.812
	c7.771,45.295,16.578,96.633,74.668,154.723c4.617,4.617,9.191,8.921,13.724,12.939V106.652
	C990.123,85.589,986.583,64.98,982.571,41.595z"/>
<path fill="#F6B4C7" d="M860.805,740.141c-58.093-58.092-109.431-66.9-154.727-74.672c-41.388-7.103-74.079-12.712-115.989-54.622
	c-41.908-41.908-47.517-74.598-54.617-115.985c-7.771-45.294-16.578-96.632-74.668-154.723
	c-58.091-58.09-109.429-66.898-154.724-74.669c-41.387-7.101-74.077-12.709-115.985-54.618
	c-41.908-41.908-47.517-74.598-54.616-115.984c-4.941-28.799-10.307-60.042-28.486-93.91H19.269
	c33.423,37.297,38.714,68.015,45.246,106.085c7.771,45.294,16.579,96.631,74.668,154.722
	c58.091,58.09,109.429,66.898,154.724,74.669c41.387,7.101,74.077,12.709,115.985,54.618
	c41.908,41.908,47.517,74.599,54.617,115.985c7.771,45.295,16.578,96.633,74.668,154.723c58.092,58.092,109.431,66.9,154.726,74.673
	c41.389,7.102,74.08,12.711,115.99,54.621c41.911,41.91,47.521,74.602,54.622,115.99c4.942,28.801,10.308,60.045,28.489,93.914
	h87.725c-33.425-37.299-38.719-68.018-45.251-106.09C927.705,849.572,918.896,798.232,860.805,740.141z"/>
</svg>
