<?xml version="1.0" encoding="utf-8"?>
<!-- Generator: Adobe Illustrator 15.0.2, SVG Export Plug-In  -->
<!DOCTYPE svg PUBLIC "-//W3C//DTD SVG 1.1//EN" "http://www.w3.org/Graphics/SVG/1.1/DTD/svg11.dtd" [
	<!ENTITY ns_flows "http://ns.adobe.com/Flows/1.0/">
]>
<svg version="1.1"
	 xmlns="http://www.w3.org/2000/svg" xmlns:xlink="http://www.w3.org/1999/xlink" xmlns:a="http://ns.adobe.com/AdobeSVGViewerExtensions/3.0/"
	 x="0px" y="0px" width="1000px" height="1000px" viewBox="0 0 1000 1000"
	 overflow="visible" enable-background="new 0 0 1000 1000" xml:space="preserve">
<defs>
</defs>
<rect class="tertiary" fill="#1DD2AF" width="1000" height="1000"/>
<path class="primary" fill="#FFF200" d="M260.816,860.805c58.092-58.093,66.9-109.431,74.672-154.727c7.103-41.388,12.712-74.079,54.622-115.989
	c41.908-41.908,74.598-47.517,115.985-54.617c45.294-7.771,96.632-16.578,154.723-74.668
	c58.09-58.091,66.898-109.429,74.669-154.724c7.101-41.387,12.709-74.077,54.618-115.985
	c41.908-41.908,74.598-47.517,115.984-54.616c28.799-4.941,60.042-10.307,93.91-28.486V19.269
	c-37.297,33.423-68.015,38.714-106.085,45.246c-45.294,7.771-96.631,16.579-154.722,74.668
	c-58.09,58.091-66.898,109.429-74.669,154.724c-7.101,41.387-12.709,74.077-54.618,115.985
	c-41.908,41.908-74.599,47.517-115.985,54.617c-45.295,7.771-96.633,16.578-154.723,74.668
	c-58.092,58.092-66.9,109.431-74.673,154.726c-7.102,41.389-12.711,74.08-54.621,115.99c-41.91,41.911-74.602,47.521-115.99,54.622
	C65.113,869.457,33.869,874.822,0,893.004v87.725c37.299-33.425,68.018-38.719,106.09-45.251
	C151.385,927.705,202.725,918.896,260.816,860.805z"/>
<path class="primary" fill="#FFF200" d="M180.29,552.114c7.102-41.388,12.711-74.079,54.621-115.989c41.908-41.908,74.598-47.517,115.986-54.617
	c45.293-7.771,96.631-16.578,154.723-74.668c58.09-58.091,66.898-109.429,74.668-154.724c7.102-41.387,12.709-74.077,54.619-115.985
	C652.315,18.723,668.133,7.59,683.644,0H570.128c-45.716,52.061-53.697,98.528-60.803,139.942
	c-7.1,41.387-12.709,74.077-54.617,115.985s-74.6,47.517-115.986,54.617c-45.295,7.771-96.633,16.578-154.723,74.668
	c-58.092,58.092-66.9,109.431-74.672,154.726c-7.102,41.389-12.711,74.08-54.621,115.99C35.061,675.575,17.439,687.244,0,694.83
	v76.275c32.444-9.323,67.584-26.23,105.618-64.265C163.71,648.748,172.519,597.41,180.29,552.114z"/>
<path class="primary" fill="#FFF200" d="M85.878,287.092c41.908-41.908,74.598-47.517,115.986-54.617c45.293-7.771,96.631-16.578,154.723-74.668
	c58.09-58.091,66.898-109.429,74.668-154.724c0.178-1.034,0.354-2.06,0.53-3.083h-73.068c-6.561,37.203-14.25,68.103-53.042,106.895
	c-41.908,41.908-74.6,47.517-115.986,54.617c-45.295,7.771-96.633,16.578-154.723,74.668C20.504,250.642,9.098,264.686,0,278.321
	v223.674c20.423-35.8,26.073-68.702,31.257-98.914C38.358,361.693,43.968,329.002,85.878,287.092z"/>
<path class="primary" fill="#FFF200" d="M207.554,8.773C210.496,5.831,213.305,2.907,216,0H93.825c-17.047,6.271-34.194,9.223-53.17,12.479
	C27.61,14.717,14.063,17.043,0,20.605v75.191c16.935-6.186,33.98-9.121,52.831-12.355C98.124,75.671,149.462,66.863,207.554,8.773z"
	/>
<path class="primary" fill="#FFF200" d="M545.311,739.122c41.908-41.908,74.598-47.517,115.985-54.617c45.294-7.771,96.632-16.578,154.723-74.668
	c58.09-58.091,66.898-109.429,74.669-154.724c7.101-41.387,12.709-74.077,54.618-115.985c19.642-19.642,37.258-31.31,54.694-38.895
	v-76.276c-32.44,9.323-67.576,26.229-105.606,64.259c-58.09,58.091-66.898,109.429-74.669,154.724
	c-7.101,41.387-12.709,74.077-54.618,115.985c-41.908,41.908-74.599,47.517-115.985,54.617
	c-45.295,7.771-96.633,16.578-154.723,74.668c-58.092,58.092-66.9,109.431-74.673,154.726c-7.102,41.389-12.711,74.08-54.621,115.99
	c-21.638,21.638-40.817,33.588-60.007,41.074h120.347c49.654-54.069,57.914-102.167,65.244-144.889
	C497.791,813.724,503.4,781.032,545.311,739.122z"/>
<path class="primary" fill="#FFF200" d="M810.329,833.538c45.294-7.771,96.632-16.578,154.723-74.668c14.453-14.453,25.854-28.488,34.948-42.116
	v-223.67c-20.412,35.79-26.061,68.684-31.242,98.889c-7.101,41.387-12.709,74.077-54.618,115.985
	c-41.908,41.908-74.599,47.517-115.985,54.617c-45.295,7.771-96.633,16.578-154.723,74.668
	c-58.092,58.092-66.9,109.431-74.673,154.726c-0.466,2.713-0.925,5.388-1.389,8.031h73.064
	c6.808-39.45,13.408-71.344,53.909-111.845C736.252,846.247,768.941,840.639,810.329,833.538z"/>
<path class="primary" fill="#FFF200" d="M959.362,982.571c13.039-2.237,26.58-4.562,40.638-8.122V899.26c-16.929,6.181-33.969,9.115-52.812,12.349
	c-45.295,7.771-96.633,16.578-154.723,74.668c-4.617,4.617-8.921,9.191-12.939,13.724h114.779
	C915.368,990.123,935.977,986.583,959.362,982.571z"/>
<path class="secondary" fill="#E67E22" d="M180.29,552.114c7.102-41.388,12.711-74.079,54.621-115.989c41.908-41.908,74.598-47.517,115.986-54.617
	c45.293-7.771,96.631-16.578,154.723-74.668c58.09-58.091,66.898-109.429,74.668-154.724c7.102-41.387,12.709-74.077,54.619-115.985
	C652.315,18.723,668.133,7.59,683.644,0H570.128c-45.716,52.061-53.697,98.528-60.803,139.942
	c-7.1,41.387-12.709,74.077-54.617,115.985s-74.6,47.517-115.986,54.617c-45.295,7.771-96.633,16.578-154.723,74.668
	c-58.092,58.092-66.9,109.431-74.672,154.726c-7.102,41.389-12.711,74.08-54.621,115.99C35.061,675.575,17.439,687.244,0,694.83
	v76.275c32.444-9.323,67.584-26.23,105.618-64.265C163.71,648.748,172.519,597.41,180.29,552.114z"/>
<path class="secondary" fill="#E67E22" d="M207.554,8.773C210.496,5.831,213.305,2.907,216,0H93.825c-17.047,6.271-34.194,9.223-53.17,12.479
	C27.61,14.717,14.063,17.043,0,20.605v75.191c16.935-6.186,33.98-9.121,52.831-12.355C98.124,75.671,149.462,66.863,207.554,8.773z"
	/>
<path class="secondary" fill="#E67E22" d="M545.311,739.122c41.908-41.908,74.598-47.517,115.985-54.617c45.294-7.771,96.632-16.578,154.723-74.668
	c58.09-58.091,66.898-109.429,74.669-154.724c7.101-41.387,12.709-74.077,54.618-115.985c19.642-19.642,37.258-31.31,54.694-38.895
	v-76.276c-32.44,9.323-67.576,26.229-105.606,64.259c-58.09,58.091-66.898,109.429-74.669,154.724
	c-7.101,41.387-12.709,74.077-54.618,115.985c-41.908,41.908-74.599,47.517-115.985,54.617
	c-45.295,7.771-96.633,16.578-154.723,74.668c-58.092,58.092-66.9,109.431-74.673,154.726c-7.102,41.389-12.711,74.08-54.621,115.99
	c-21.638,21.638-40.817,33.588-60.007,41.074h120.347c49.654-54.069,57.914-102.167,65.244-144.889
	C497.791,813.724,503.4,781.032,545.311,739.122z"/>
<path class="secondary" fill="#E67E22" d="M959.362,982.571c13.039-2.237,26.58-4.562,40.638-8.122V899.26c-16.929,6.181-33.969,9.115-52.812,12.349
	c-45.295,7.771-96.633,16.578-154.723,74.668c-4.617,4.617-8.921,9.191-12.939,13.724h114.779
	C915.368,990.123,935.977,986.583,959.362,982.571z"/>
<path class="quaternary" fill="#7B73B0" d="M85.878,287.092c41.908-41.908,74.598-47.517,115.986-54.617c45.293-7.771,96.631-16.578,154.723-74.668
	c58.09-58.091,66.898-109.429,74.668-154.724c0.178-1.034,0.354-2.06,0.53-3.083h-73.068c-6.561,37.203-14.25,68.103-53.042,106.895
	c-41.908,41.908-74.6,47.517-115.986,54.617c-45.295,7.771-96.633,16.578-154.723,74.668C20.504,250.642,9.098,264.686,0,278.321
	v223.674c20.423-35.8,26.073-68.702,31.257-98.914C38.358,361.693,43.968,329.002,85.878,287.092z"/>
<path class="quaternary" fill="#7B73B0" d="M810.329,833.538c45.294-7.771,96.632-16.578,154.723-74.668c14.453-14.453,25.854-28.488,34.948-42.116
	v-223.67c-20.412,35.79-26.061,68.684-31.242,98.889c-7.101,41.387-12.709,74.077-54.618,115.985
	c-41.908,41.908-74.599,47.517-115.985,54.617c-45.295,7.771-96.633,16.578-154.723,74.668
	c-58.092,58.092-66.9,109.431-74.673,154.726c-0.466,2.713-0.925,5.388-1.389,8.031h73.064
	c6.808-39.45,13.408-71.344,53.909-111.845C736.252,846.247,768.941,840.639,810.329,833.538z"/>
<path class="quinary" fill="#F6B4C7" d="M207.554,8.773C210.496,5.831,213.305,2.907,216,0H93.825c-17.047,6.271-34.194,9.223-53.17,12.479
	C27.61,14.717,14.063,17.043,0,20.605v75.191c16.935-6.186,33.98-9.121,52.831-12.355C98.124,75.671,149.462,66.863,207.554,8.773z"
	/>
<path class="quinary" fill="#F6B4C7" d="M545.311,739.122c41.908-41.908,74.598-47.517,115.985-54.617c45.294-7.771,96.632-16.578,154.723-74.668
	c58.09-58.091,66.898-109.429,74.669-154.724c7.101-41.387,12.709-74.077,54.618-115.985c19.642-19.642,37.258-31.31,54.694-38.895
	v-76.276c-32.44,9.323-67.576,26.229-105.606,64.259c-58.09,58.091-66.898,109.429-74.669,154.724
	c-7.101,41.387-12.709,74.077-54.618,115.985c-41.908,41.908-74.599,47.517-115.985,54.617
	c-45.295,7.771-96.633,16.578-154.723,74.668c-58.092,58.092-66.9,109.431-74.673,154.726c-7.102,41.389-12.711,74.08-54.621,115.99
	c-21.638,21.638-40.817,33.588-60.007,41.074h120.347c49.654-54.069,57.914-102.167,65.244-144.889
	C497.791,813.724,503.4,781.032,545.311,739.122z"/>
</svg>
